<?xml version="1.0" encoding="UTF-8"?>
<svg xmlns="http://www.w3.org/2000/svg" xmlns:xlink="http://www.w3.org/1999/xlink" width="13px" height="13px" viewBox="0 0 40 40" version="1.1">
<g id="surface1">
<path style=" stroke:none;fill-rule:nonzero;fill:rgb(100%,46.27451%,29.803922%);fill-opacity:1;" d="M 40 20 C 40 31.046875 31.046875 40 20 40 C 8.953125 40 0 31.046875 0 20 C 0 8.953125 8.953125 0 20 0 C 31.046875 0 40 8.953125 40 20 Z M 40 20 "/>
<path style=" stroke:none;fill-rule:nonzero;fill:rgb(100%,27.058824%,4.705882%);fill-opacity:1;" d="M 39.914062 21.867188 L 31.199219 13.152344 L 15.691406 22.019531 L 10.046875 29.714844 L 20.332031 39.996094 C 30.597656 39.828125 38.980469 31.929688 39.914062 21.867188 Z M 39.914062 21.867188 "/>
<path style=" stroke:none;fill-rule:nonzero;fill:rgb(0%,26.666667%,49.019608%);fill-opacity:1;" d="M 10.046875 29.714844 C 9.179688 28.847656 9.179688 27.4375 10.046875 26.570312 L 24.191406 12.429688 L 27.332031 15.570312 L 13.191406 29.714844 C 12.324219 30.582031 10.917969 30.582031 10.046875 29.714844 Z M 10.046875 29.714844 "/>
<path style=" stroke:none;fill-rule:nonzero;fill:rgb(2.352941%,16.078431%,39.215686%);fill-opacity:1;" d="M 10.035156 29.695312 C 10.039062 29.703125 10.042969 29.707031 10.050781 29.714844 C 10.917969 30.582031 12.324219 30.582031 13.191406 29.714844 L 27.332031 15.570312 L 25.746094 13.984375 Z M 10.035156 29.695312 "/>
<path style=" stroke:none;fill-rule:nonzero;fill:rgb(100%,100%,100%);fill-opacity:1;" d="M 25.984375 8.351562 L 21.828125 8.351562 C 21.5625 8.351562 21.308594 8.453125 21.121094 8.640625 L 19.898438 9.867188 C 19.507812 10.257812 19.507812 10.886719 19.898438 11.277344 L 27.914062 19.292969 C 28.304688 19.683594 28.933594 19.683594 29.324219 19.292969 L 32.628906 15.992188 C 33.015625 15.601562 33.015625 14.96875 32.628906 14.582031 L 26.6875 8.640625 C 26.503906 8.453125 26.25 8.351562 25.984375 8.351562 Z M 25.984375 8.351562 "/>
<path style=" stroke:none;fill-rule:nonzero;fill:rgb(81.568627%,81.960784%,82.745098%);fill-opacity:1;" d="M 32.628906 14.582031 L 28.890625 10.839844 L 24.175781 15.554688 L 27.914062 19.292969 C 28.304688 19.683594 28.933594 19.683594 29.324219 19.292969 L 32.628906 15.992188 C 33.015625 15.601562 33.015625 14.96875 32.628906 14.582031 Z M 32.628906 14.582031 "/>
</g>
</svg>
